<svg xmlns="http://www.w3.org/2000/svg" width="33" height="34" viewBox="0 0 33 34"><g transform="translate(-56 -183)"><circle cx="15.5" cy="15.5" r="15.5" transform="translate(56 186)" fill="#16005c"/><g transform="translate(96 183)" fill="#3dbe71"><path d="M -7.506956577301025 17.50020027160645 L -24.50019836425781 17.50020027160645 L -24.50019836425781 0.5069573521614075 C -20.01267623901367 0.6318913698196411 -15.81272411346436 2.43828558921814 -12.62550926208496 5.625510215759277 C -9.438284873962402 8.812725067138672 -7.631890296936035 13.01267719268799 -7.506956577301025 17.50020027160645 Z" stroke="none"/><path d="M -8.028722763061523 17.00020027160645 C -8.268607139587402 12.8349781036377 -10.0049934387207 8.953125953674316 -12.97905921936035 5.979060173034668 C -15.953125 3.004993915557861 -19.83497619628906 1.268607974052429 -24.00019836425781 1.028724074363708 L -24.00019836425781 17.00020027160645 L -8.028722763061523 17.00020027160645 M -6.999999046325684 18.00020027160645 L -25.00019836425781 18.00020027160645 L -25.00019836425781 1.358032193365943e-07 C -15.05847930908203 1.358032193365943e-07 -6.999999046325684 8.058480262756348 -6.999999046325684 18.00020027160645 Z" stroke="none" fill="#fff"/></g></g></svg>